<svg width="44" height="12" viewBox="0 0 44 12" fill="none" xmlns="http://www.w3.org/2000/svg">
<path d="M6 12C9.31371 12 12 9.31371 12 6C12 2.68629 9.31371 0 6 0C2.68629 0 0 2.68629 0 6C0 9.31371 2.68629 12 6 12Z" fill="#ED7161"/>
<path d="M22 12C25.3137 12 28 9.31371 28 6C28 2.68629 25.3137 0 22 0C18.6863 0 16 2.68629 16 6C16 9.31371 18.6863 12 22 12Z" fill="#EFC41A"/>
<path d="M38 12C41.3137 12 44 9.31371 44 6C44 2.68629 41.3137 0 38 0C34.6863 0 32 2.68629 32 6C32 9.31371 34.6863 12 38 12Z" fill="#4FBA6E"/>
</svg>
