<svg width="34" height="30" viewBox="0 0 34 30" fill="none" xmlns="http://www.w3.org/2000/svg">
<path d="M33.7464 0.159134C33.5349 -0.010609 33.2528 -0.0445576 33.006 0.0572884L0.813641 13.6367C0.284742 13.8404 -0.0325975 14.3497 0.0026624 14.9268C0.0379223 15.5039 0.390522 15.9792 0.954681 16.1829L10.3691 19.1704V27.3181C10.3691 28.0649 10.8627 28.7099 11.6032 28.9136C12.3436 29.1513 13.1546 28.8797 13.613 28.2686L17.5621 22.7689L25.9187 29.6945C26.1655 29.8982 26.4829 30 26.8355 30C27.0118 30 27.1528 29.966 27.2939 29.9321C27.7875 29.7624 28.1401 29.3889 28.2106 28.9136L33.9932 0.838107C34.0285 0.600467 33.9227 0.328877 33.7464 0.159134ZM16.8569 21.3431L12.4494 27.4878C12.3084 27.6915 12.1321 27.6575 12.0263 27.6236C11.9558 27.6236 11.7795 27.5217 11.7795 27.3181V18.6951C11.7795 18.3896 11.6032 18.1519 11.2858 18.0501L1.3778 14.8589L30.0089 2.80713L15.9049 13.9762C15.5876 14.2139 15.5523 14.6552 15.7991 14.9268C15.9402 15.0965 16.1517 15.1644 16.328 15.1644C16.4691 15.1644 16.6454 15.1305 16.7864 14.9947L29.0216 5.31933L16.8569 21.3431ZM26.8355 28.6421L18.3731 21.6486L31.9129 3.85954L26.8355 28.6421Z" fill="black"/>
<path d="M14.0009 15.47L12.8726 16.3526C12.5552 16.5903 12.52 17.0316 12.7668 17.3032C12.9078 17.4729 13.1194 17.5408 13.3309 17.5408C13.472 17.5408 13.6483 17.5069 13.7893 17.405L14.9176 16.5224C15.235 16.2847 15.2702 15.8434 15.0234 15.5718C14.7766 15.3002 14.3182 15.2663 14.0009 15.47Z" fill="black"/>
</svg>
