<svg width="30" height="30" viewBox="0 0 30 30" fill="none" xmlns="http://www.w3.org/2000/svg">
<path d="M15 0C6.68182 0 0 6.68182 0 15C0 23.3182 6.68182 30 15 30C23.3182 30 30 23.3182 30 15C30 6.68182 23.3182 0 15 0ZM23.1818 15.6818C23.1818 16.0909 22.9091 16.3636 22.5 16.3636H16.7045C16.5 16.3636 16.3636 16.5 16.3636 16.7045V22.5C16.3636 22.9091 16.0909 23.1818 15.6818 23.1818H14.3182C13.9091 23.1818 13.6364 22.9091 13.6364 22.5V16.7045C13.6364 16.5 13.5 16.3636 13.2955 16.3636H7.5C7.09091 16.3636 6.81818 16.0909 6.81818 15.6818V14.3182C6.81818 13.9091 7.09091 13.6364 7.5 13.6364H13.2955C13.5 13.6364 13.6364 13.5 13.6364 13.2955V7.5C13.6364 7.09091 13.9091 6.81818 14.3182 6.81818H15.6818C16.0909 6.81818 16.3636 7.09091 16.3636 7.5V13.2955C16.3636 13.5 16.5 13.6364 16.7045 13.6364H22.5C22.9091 13.6364 23.1818 13.9091 23.1818 14.3182V15.6818Z" fill="#BC2A8D"/>
</svg>
