<svg width="36" height="31" viewBox="0 0 36 31" fill="none" xmlns="http://www.w3.org/2000/svg">
<path d="M33.0922 2.87798C31.2071 1.03159 28.7114 0.0224259 26.0479 0.0224259C23.3843 0.0224259 20.8811 1.03906 18.996 2.88546L18.0114 3.84977L17.0117 2.87051C15.1266 1.02411 12.6157 -4.1063e-08 9.95211 -4.1063e-08C7.29619 -4.1063e-08 4.79291 1.01664 2.91545 2.85556C1.03036 4.70195 -0.00759016 7.15384 4.17904e-05 9.76272C4.17904e-05 12.3716 1.04562 14.816 2.93071 16.6624L17.2635 30.701C17.4619 30.8953 17.7291 31 17.9886 31C18.248 31 18.5152 30.9028 18.7136 30.7085L33.0769 16.6923C34.962 14.8459 36 12.394 36 9.78514C36.0076 7.17627 34.9773 4.72438 33.0922 2.87798ZM31.6268 15.2645L17.9886 28.5705L4.38078 15.2421C2.88492 13.7769 2.06067 11.8334 2.06067 9.76272C2.06067 7.69207 2.87729 5.74849 4.37315 4.29081C5.86138 2.83313 7.84569 2.0258 9.95211 2.0258C12.0662 2.0258 14.0581 2.83313 15.554 4.29829L17.2788 5.9877C17.6833 6.38389 18.332 6.38389 18.7365 5.9877L20.446 4.31324C21.9419 2.84808 23.9338 2.04075 26.0403 2.04075C28.1467 2.04075 30.131 2.84808 31.6268 4.30576C33.1227 5.77092 33.9393 7.71449 33.9393 9.78514C33.947 11.8558 33.1227 13.7994 31.6268 15.2645Z" fill="black"/>
</svg>
