<svg width="36" height="32" viewBox="0 0 36 32" fill="none" xmlns="http://www.w3.org/2000/svg">
<path d="M35.6171 12.639L18.5526 0.180156C18.2235 -0.0600518 17.7765 -0.0600518 17.4476 0.180156L0.382892 12.639C-0.0339202 12.9434 -0.124483 13.527 0.180743 13.9427C0.485969 14.3583 1.07132 14.4484 1.48806 14.1442L18 2.0887L34.512 14.1442C34.6785 14.2658 34.872 14.3243 35.0638 14.3243C35.3518 14.3243 35.636 14.1922 35.8192 13.9426C36.1245 13.527 36.0339 12.9434 35.6171 12.639Z" fill="white"/>
<path d="M31.0954 14.3553C30.5789 14.3553 30.16 14.7729 30.16 15.2881V30.1344H22.6772V22.0303C22.6772 19.4586 20.579 17.3664 18.0001 17.3664C15.4211 17.3664 13.3229 19.4587 13.3229 22.0303V30.1345H5.84003V15.2881C5.84003 14.773 5.42118 14.3554 4.90466 14.3554C4.38815 14.3554 3.9693 14.773 3.9693 15.2881V31.0673C3.9693 31.5824 4.38815 32 4.90466 32H14.2582C14.7502 32 15.1527 31.621 15.19 31.1399C15.1922 31.1181 15.1936 31.0943 15.1936 31.0673V22.0304C15.1936 20.4873 16.4526 19.2319 18.0001 19.2319C19.5476 19.2319 20.8065 20.4874 20.8065 22.0304V31.0673C20.8065 31.0941 20.8079 31.1176 20.8102 31.1391C20.847 31.6206 21.2497 32 21.7419 32H31.0955C31.612 32 32.0308 31.5824 32.0308 31.0673V15.2881C32.0308 14.7729 31.612 14.3553 31.0954 14.3553Z" fill="white"/>
</svg>
