<svg width="26" height="7" viewBox="0 0 26 7" fill="none" xmlns="http://www.w3.org/2000/svg">
<path d="M3.46667 0C1.55523 0 0 1.57019 0 3.5C0 5.42981 1.55523 7 3.46667 7C5.3781 7 6.93333 5.42981 6.93333 3.5C6.93333 1.57019 5.3781 0 3.46667 0ZM3.46667 6.125C2.03277 6.125 0.866667 4.94769 0.866667 3.5C0.866667 2.05231 2.03277 0.875 3.46667 0.875C4.90057 0.875 6.06667 2.05231 6.06667 3.5C6.06667 4.94769 4.90057 6.125 3.46667 6.125Z" fill="black"/>
<path d="M22.5333 0C20.6219 0 19.0667 1.57019 19.0667 3.5C19.0667 5.42981 20.6219 7 22.5333 7C24.4448 7 26 5.42981 26 3.5C26 1.57019 24.4448 0 22.5333 0ZM22.5333 6.125C21.0994 6.125 19.9333 4.94769 19.9333 3.5C19.9333 2.05231 21.0994 0.875 22.5333 0.875C23.9672 0.875 25.1333 2.05231 25.1333 3.5C25.1333 4.94769 23.9672 6.125 22.5333 6.125Z" fill="black"/>
<path d="M13 0C11.0886 0 9.53334 1.57019 9.53334 3.5C9.53334 5.42981 11.0886 7 13 7C14.9114 7 16.4667 5.42981 16.4667 3.5C16.4667 1.57019 14.9114 0 13 0ZM13 6.125C11.5661 6.125 10.4 4.94769 10.4 3.5C10.4 2.05231 11.5661 0.875 13 0.875C14.4339 0.875 15.6 2.05231 15.6 3.5C15.6 4.94769 14.4339 6.125 13 6.125Z" fill="black"/>
</svg>
