<svg width="15" height="15" viewBox="0 0 15 15" fill="none" xmlns="http://www.w3.org/2000/svg">
<path d="M7.5 0C3.36462 0 0 3.36433 0 7.5C0 11.6357 3.36462 15 7.5 15C11.6354 15 15 11.6357 15 7.5C15 3.36433 11.6354 0 7.5 0ZM11.1058 8.07692H8.07692V11.25C8.07692 11.5685 7.81846 11.8269 7.5 11.8269C7.18154 11.8269 6.92308 11.5685 6.92308 11.25V8.07692H3.89423C3.57577 8.07692 3.31731 7.81846 3.31731 7.5C3.31731 7.18154 3.57577 6.92308 3.89423 6.92308H6.92308V4.03846C6.92308 3.72 7.18154 3.46154 7.5 3.46154C7.81846 3.46154 8.07692 3.72 8.07692 4.03846V6.92308H11.1058C11.4242 6.92308 11.6827 7.18154 11.6827 7.5C11.6827 7.81846 11.4242 8.07692 11.1058 8.07692Z" fill="#5D5DCB"/>
</svg>
