<svg width="36" height="35" viewBox="0 0 36 35" fill="none" xmlns="http://www.w3.org/2000/svg">
<path d="M17.9409 19.6423C23.2611 19.6423 27.5763 15.2371 27.5763 9.80607C27.5763 4.37507 23.261 -2.48816e-09 17.9409 -2.48816e-09C12.6207 -2.48816e-09 8.30542 4.4052 8.30542 9.80607C8.30542 15.2069 12.6207 19.6423 17.9409 19.6423ZM17.9409 2.56467C21.8423 2.56467 25.0345 5.82327 25.0345 9.80607C25.0345 13.7889 21.8423 17.0474 17.9409 17.0474C14.0394 17.0474 10.8473 13.7888 10.8473 9.806C10.8473 5.8232 14.0394 2.56467 17.9409 2.56467Z" fill="black"/>
<path d="M1.27092 35H34.7291C35.4384 35 36 34.4267 36 33.7026C36 26.9138 30.5912 21.3621 23.9113 21.3621H12.0887C5.43843 21.3621 0 26.8836 0 33.7026C0 34.4267 0.561568 35 1.27092 35ZM12.0887 23.9569H23.9113C28.7586 23.9569 32.7487 27.6379 33.3695 32.4051H2.63053C3.2512 27.6681 7.2414 23.9569 12.0887 23.9569Z" fill="black"/>
</svg>
